<svg xmlns="http://www.w3.org/2000/svg" viewBox="0 0 100 100">
    <rect width="100" height="100" rx="15" fill="#EAF1FF"/>
    <g transform="translate(25, 15)">
        <path d="M25,10 L45,10 L50,20 L45,30 L25,30 L20,20 Z" fill="#20BF6F"/>
        <rect x="30" y="30" width="10" height="40" fill="#20BF6F"/>
        <path d="M15,70 L55,70" stroke="#168F52" stroke-width="3"/>
        <circle cx="35" cy="20" r="3" fill="#FFFFFF"/>
        <path d="M30,40 L40,40 M30,50 L40,50 M30,60 L40,60" stroke="#FFFFFF" stroke-width="2"/>
        <path d="M15,40 L25,40 M15,50 L25,50 M15,60 L25,60" stroke="#E8F8F1" stroke-width="2"/>
        <path d="M45,40 L55,40 M45,50 L55,50 M45,60 L55,60" stroke="#E8F8F1" stroke-width="2"/>
    </g>
    <text x="50" y="90" text-anchor="middle" font-family="Arial, sans-serif" font-size="10" fill="#061257">Medicine</text>
</svg>